<mxfile host="Electron" modified="2024-01-31T05:56:31.410Z" agent="Mozilla/5.0 (Windows NT 10.0; Win64; x64) AppleWebKit/537.36 (KHTML, like Gecko) draw.io/23.0.2 Chrome/120.0.6099.109 Electron/28.1.0 Safari/537.36" etag="hchf63z8J75qeJOGjotS" version="23.0.2" type="device">
  <diagram name="Page-1" id="7x5rFOevnBUqgZXwnDZB">
    <mxGraphModel dx="850" dy="583" grid="1" gridSize="10" guides="1" tooltips="1" connect="1" arrows="1" fold="1" page="1" pageScale="1" pageWidth="850" pageHeight="1100" math="0" shadow="0">
      <root>
        <mxCell id="0" />
        <mxCell id="1" parent="0" />
        <mxCell id="yNz4-79OfLmg_JObA8Re-1" value="&lt;font face=&quot;consolas&quot;&gt;exception&lt;/font&gt;" style="rounded=0;whiteSpace=wrap;html=1;fillColor=#fad7ac;strokeColor=#b46504;fontStyle=1" vertex="1" parent="1">
          <mxGeometry x="230" y="190" width="160" height="40" as="geometry" />
        </mxCell>
        <mxCell id="yNz4-79OfLmg_JObA8Re-12" style="edgeStyle=orthogonalEdgeStyle;rounded=0;orthogonalLoop=1;jettySize=auto;html=1;" edge="1" parent="1" source="yNz4-79OfLmg_JObA8Re-2" target="yNz4-79OfLmg_JObA8Re-1">
          <mxGeometry relative="1" as="geometry">
            <Array as="points">
              <mxPoint x="200" y="150" />
              <mxPoint x="200" y="210" />
            </Array>
          </mxGeometry>
        </mxCell>
        <mxCell id="yNz4-79OfLmg_JObA8Re-2" value="&lt;font face=&quot;consolas&quot;&gt;bad_optional_access&lt;/font&gt;" style="rounded=0;whiteSpace=wrap;html=1;fillColor=#b1ddf0;strokeColor=#10739e;" vertex="1" parent="1">
          <mxGeometry x="10" y="130" width="160" height="40" as="geometry" />
        </mxCell>
        <mxCell id="yNz4-79OfLmg_JObA8Re-22" value="" style="edgeStyle=orthogonalEdgeStyle;rounded=0;orthogonalLoop=1;jettySize=auto;html=1;" edge="1" parent="1" source="yNz4-79OfLmg_JObA8Re-3" target="yNz4-79OfLmg_JObA8Re-20">
          <mxGeometry relative="1" as="geometry" />
        </mxCell>
        <mxCell id="yNz4-79OfLmg_JObA8Re-3" value="&lt;font face=&quot;consolas&quot;&gt;bad_any_cast&lt;/font&gt;" style="rounded=0;whiteSpace=wrap;html=1;fillColor=#fad9d5;strokeColor=#ae4132;" vertex="1" parent="1">
          <mxGeometry x="230" y="70" width="160" height="40" as="geometry" />
        </mxCell>
        <mxCell id="yNz4-79OfLmg_JObA8Re-16" style="edgeStyle=orthogonalEdgeStyle;rounded=0;orthogonalLoop=1;jettySize=auto;html=1;" edge="1" parent="1" source="yNz4-79OfLmg_JObA8Re-4" target="yNz4-79OfLmg_JObA8Re-1">
          <mxGeometry relative="1" as="geometry">
            <Array as="points">
              <mxPoint x="200" y="390" />
              <mxPoint x="200" y="210" />
            </Array>
          </mxGeometry>
        </mxCell>
        <mxCell id="yNz4-79OfLmg_JObA8Re-4" value="&lt;font face=&quot;consolas&quot;&gt;ios_base::failure&lt;/font&gt;" style="rounded=0;whiteSpace=wrap;html=1;fillColor=#b1ddf0;strokeColor=#10739e;" vertex="1" parent="1">
          <mxGeometry x="10" y="370" width="160" height="40" as="geometry" />
        </mxCell>
        <mxCell id="yNz4-79OfLmg_JObA8Re-13" style="edgeStyle=orthogonalEdgeStyle;rounded=0;orthogonalLoop=1;jettySize=auto;html=1;" edge="1" parent="1" source="yNz4-79OfLmg_JObA8Re-5" target="yNz4-79OfLmg_JObA8Re-1">
          <mxGeometry relative="1" as="geometry" />
        </mxCell>
        <mxCell id="yNz4-79OfLmg_JObA8Re-5" value="&lt;font face=&quot;consolas&quot;&gt;bad_weak_ptr&lt;/font&gt;" style="rounded=0;whiteSpace=wrap;html=1;fillColor=#b1ddf0;strokeColor=#10739e;" vertex="1" parent="1">
          <mxGeometry x="10" y="190" width="160" height="40" as="geometry" />
        </mxCell>
        <mxCell id="yNz4-79OfLmg_JObA8Re-14" style="edgeStyle=orthogonalEdgeStyle;rounded=0;orthogonalLoop=1;jettySize=auto;html=1;" edge="1" parent="1" source="yNz4-79OfLmg_JObA8Re-6" target="yNz4-79OfLmg_JObA8Re-1">
          <mxGeometry relative="1" as="geometry">
            <Array as="points">
              <mxPoint x="200" y="270" />
              <mxPoint x="200" y="210" />
            </Array>
          </mxGeometry>
        </mxCell>
        <mxCell id="yNz4-79OfLmg_JObA8Re-6" value="&lt;font face=&quot;consolas&quot;&gt;bad_function_call&lt;/font&gt;" style="rounded=0;whiteSpace=wrap;html=1;fillColor=#b1ddf0;strokeColor=#10739e;" vertex="1" parent="1">
          <mxGeometry x="10" y="250" width="160" height="40" as="geometry" />
        </mxCell>
        <mxCell id="yNz4-79OfLmg_JObA8Re-11" style="edgeStyle=orthogonalEdgeStyle;rounded=0;orthogonalLoop=1;jettySize=auto;html=1;" edge="1" parent="1" source="yNz4-79OfLmg_JObA8Re-7" target="yNz4-79OfLmg_JObA8Re-1">
          <mxGeometry relative="1" as="geometry">
            <Array as="points">
              <mxPoint x="200" y="90" />
              <mxPoint x="200" y="210" />
            </Array>
          </mxGeometry>
        </mxCell>
        <mxCell id="yNz4-79OfLmg_JObA8Re-7" value="&lt;font face=&quot;consolas&quot;&gt;bad_variant_access&lt;/font&gt;" style="rounded=0;whiteSpace=wrap;html=1;fillColor=#b1ddf0;strokeColor=#10739e;" vertex="1" parent="1">
          <mxGeometry x="10" y="70" width="160" height="40" as="geometry" />
        </mxCell>
        <mxCell id="yNz4-79OfLmg_JObA8Re-10" value="" style="edgeStyle=orthogonalEdgeStyle;rounded=0;orthogonalLoop=1;jettySize=auto;html=1;" edge="1" parent="1" source="yNz4-79OfLmg_JObA8Re-8" target="yNz4-79OfLmg_JObA8Re-1">
          <mxGeometry relative="1" as="geometry">
            <Array as="points">
              <mxPoint x="200" y="30" />
              <mxPoint x="200" y="210" />
            </Array>
          </mxGeometry>
        </mxCell>
        <mxCell id="yNz4-79OfLmg_JObA8Re-8" value="&lt;font face=&quot;consolas&quot;&gt;bad_exception&lt;/font&gt;" style="rounded=0;whiteSpace=wrap;html=1;fillColor=#b1ddf0;strokeColor=#10739e;" vertex="1" parent="1">
          <mxGeometry x="10" y="10" width="160" height="40" as="geometry" />
        </mxCell>
        <mxCell id="yNz4-79OfLmg_JObA8Re-15" style="edgeStyle=orthogonalEdgeStyle;rounded=0;orthogonalLoop=1;jettySize=auto;html=1;" edge="1" parent="1" source="yNz4-79OfLmg_JObA8Re-9" target="yNz4-79OfLmg_JObA8Re-1">
          <mxGeometry relative="1" as="geometry">
            <Array as="points">
              <mxPoint x="200" y="330" />
              <mxPoint x="200" y="210" />
            </Array>
          </mxGeometry>
        </mxCell>
        <mxCell id="yNz4-79OfLmg_JObA8Re-9" value="&lt;font face=&quot;consolas&quot;&gt;bad_typeid&lt;/font&gt;" style="rounded=0;whiteSpace=wrap;html=1;fillColor=#b1ddf0;strokeColor=#10739e;" vertex="1" parent="1">
          <mxGeometry x="10" y="310" width="160" height="40" as="geometry" />
        </mxCell>
        <mxCell id="yNz4-79OfLmg_JObA8Re-18" value="" style="edgeStyle=orthogonalEdgeStyle;rounded=0;orthogonalLoop=1;jettySize=auto;html=1;" edge="1" parent="1" source="yNz4-79OfLmg_JObA8Re-17" target="yNz4-79OfLmg_JObA8Re-1">
          <mxGeometry relative="1" as="geometry" />
        </mxCell>
        <mxCell id="yNz4-79OfLmg_JObA8Re-17" value="&lt;font face=&quot;consolas&quot;&gt;bad_alloc&lt;/font&gt;" style="rounded=0;whiteSpace=wrap;html=1;fillColor=#b1ddf0;strokeColor=#10739e;" vertex="1" parent="1">
          <mxGeometry x="230" y="250" width="160" height="40" as="geometry" />
        </mxCell>
        <mxCell id="yNz4-79OfLmg_JObA8Re-21" value="" style="edgeStyle=orthogonalEdgeStyle;rounded=0;orthogonalLoop=1;jettySize=auto;html=1;" edge="1" parent="1" source="yNz4-79OfLmg_JObA8Re-19" target="yNz4-79OfLmg_JObA8Re-17">
          <mxGeometry relative="1" as="geometry" />
        </mxCell>
        <mxCell id="yNz4-79OfLmg_JObA8Re-19" value="&lt;font face=&quot;consolas&quot;&gt;bad_array_new_length&lt;/font&gt;" style="rounded=0;whiteSpace=wrap;html=1;fillColor=#fad9d5;strokeColor=#ae4132;" vertex="1" parent="1">
          <mxGeometry x="230" y="310" width="160" height="40" as="geometry" />
        </mxCell>
        <mxCell id="yNz4-79OfLmg_JObA8Re-23" value="" style="edgeStyle=orthogonalEdgeStyle;rounded=0;orthogonalLoop=1;jettySize=auto;html=1;" edge="1" parent="1" source="yNz4-79OfLmg_JObA8Re-20" target="yNz4-79OfLmg_JObA8Re-1">
          <mxGeometry relative="1" as="geometry" />
        </mxCell>
        <mxCell id="yNz4-79OfLmg_JObA8Re-20" value="&lt;font face=&quot;consolas&quot;&gt;bad_cast&lt;/font&gt;" style="rounded=0;whiteSpace=wrap;html=1;fillColor=#b1ddf0;strokeColor=#10739e;" vertex="1" parent="1">
          <mxGeometry x="230" y="130" width="160" height="40" as="geometry" />
        </mxCell>
        <mxCell id="yNz4-79OfLmg_JObA8Re-25" style="edgeStyle=orthogonalEdgeStyle;rounded=0;orthogonalLoop=1;jettySize=auto;html=1;" edge="1" parent="1" source="yNz4-79OfLmg_JObA8Re-24" target="yNz4-79OfLmg_JObA8Re-1">
          <mxGeometry relative="1" as="geometry">
            <Array as="points">
              <mxPoint x="420" y="150" />
              <mxPoint x="420" y="210" />
            </Array>
          </mxGeometry>
        </mxCell>
        <mxCell id="yNz4-79OfLmg_JObA8Re-24" value="&lt;font face=&quot;consolas&quot;&gt;logic_failure&lt;br&gt;&lt;/font&gt;" style="rounded=0;whiteSpace=wrap;html=1;fillColor=#b1ddf0;strokeColor=#10739e;" vertex="1" parent="1">
          <mxGeometry x="450" y="130" width="160" height="40" as="geometry" />
        </mxCell>
        <mxCell id="yNz4-79OfLmg_JObA8Re-27" style="edgeStyle=orthogonalEdgeStyle;rounded=0;orthogonalLoop=1;jettySize=auto;html=1;" edge="1" parent="1" source="yNz4-79OfLmg_JObA8Re-26" target="yNz4-79OfLmg_JObA8Re-1">
          <mxGeometry relative="1" as="geometry">
            <Array as="points">
              <mxPoint x="420" y="270" />
              <mxPoint x="420" y="210" />
            </Array>
          </mxGeometry>
        </mxCell>
        <mxCell id="yNz4-79OfLmg_JObA8Re-26" value="&lt;font face=&quot;consolas&quot;&gt;runtime_error&lt;br&gt;&lt;/font&gt;" style="rounded=0;whiteSpace=wrap;html=1;fillColor=#b1ddf0;strokeColor=#10739e;" vertex="1" parent="1">
          <mxGeometry x="450" y="250" width="160" height="40" as="geometry" />
        </mxCell>
        <mxCell id="yNz4-79OfLmg_JObA8Re-30" value="" style="edgeStyle=orthogonalEdgeStyle;rounded=0;orthogonalLoop=1;jettySize=auto;html=1;" edge="1" parent="1" source="yNz4-79OfLmg_JObA8Re-28" target="yNz4-79OfLmg_JObA8Re-26">
          <mxGeometry relative="1" as="geometry" />
        </mxCell>
        <mxCell id="yNz4-79OfLmg_JObA8Re-28" value="&lt;font face=&quot;consolas&quot;&gt;system_error&lt;br&gt;&lt;/font&gt;" style="rounded=0;whiteSpace=wrap;html=1;fillColor=#fad9d5;strokeColor=#ae4132;" vertex="1" parent="1">
          <mxGeometry x="450" y="190" width="160" height="40" as="geometry" />
        </mxCell>
        <mxCell id="yNz4-79OfLmg_JObA8Re-32" value="" style="edgeStyle=orthogonalEdgeStyle;rounded=0;orthogonalLoop=1;jettySize=auto;html=1;" edge="1" parent="1" source="yNz4-79OfLmg_JObA8Re-31" target="yNz4-79OfLmg_JObA8Re-28">
          <mxGeometry relative="1" as="geometry" />
        </mxCell>
        <mxCell id="yNz4-79OfLmg_JObA8Re-31" value="&lt;font face=&quot;consolas&quot;&gt;ios_base::failure&lt;br&gt;&lt;/font&gt;" style="rounded=0;whiteSpace=wrap;html=1;fillColor=#B0F9E0;strokeColor=#0E8088;" vertex="1" parent="1">
          <mxGeometry x="670" y="190" width="160" height="40" as="geometry" />
        </mxCell>
        <mxCell id="yNz4-79OfLmg_JObA8Re-34" style="edgeStyle=orthogonalEdgeStyle;rounded=0;orthogonalLoop=1;jettySize=auto;html=1;" edge="1" parent="1" source="yNz4-79OfLmg_JObA8Re-33" target="yNz4-79OfLmg_JObA8Re-28">
          <mxGeometry relative="1" as="geometry">
            <Array as="points">
              <mxPoint x="650" y="270" />
              <mxPoint x="650" y="210" />
            </Array>
          </mxGeometry>
        </mxCell>
        <mxCell id="yNz4-79OfLmg_JObA8Re-33" value="&lt;font face=&quot;consolas&quot;&gt;filesystem::&lt;br&gt;filesystem_error&lt;br&gt;&lt;/font&gt;" style="rounded=0;whiteSpace=wrap;html=1;fillColor=#B0F9E0;strokeColor=#0E8088;" vertex="1" parent="1">
          <mxGeometry x="670" y="250" width="160" height="40" as="geometry" />
        </mxCell>
        <mxCell id="yNz4-79OfLmg_JObA8Re-42" style="edgeStyle=orthogonalEdgeStyle;rounded=0;orthogonalLoop=1;jettySize=auto;html=1;" edge="1" parent="1" source="yNz4-79OfLmg_JObA8Re-35" target="yNz4-79OfLmg_JObA8Re-26">
          <mxGeometry relative="1" as="geometry">
            <Array as="points">
              <mxPoint x="640" y="330" />
              <mxPoint x="640" y="270" />
            </Array>
          </mxGeometry>
        </mxCell>
        <mxCell id="yNz4-79OfLmg_JObA8Re-35" value="&lt;font face=&quot;consolas&quot;&gt;overflow_error&lt;br&gt;&lt;/font&gt;" style="rounded=0;whiteSpace=wrap;html=1;fillColor=#fad9d5;strokeColor=#ae4132;" vertex="1" parent="1">
          <mxGeometry x="670" y="310" width="160" height="40" as="geometry" />
        </mxCell>
        <mxCell id="yNz4-79OfLmg_JObA8Re-43" style="edgeStyle=orthogonalEdgeStyle;rounded=0;orthogonalLoop=1;jettySize=auto;html=1;" edge="1" parent="1" source="yNz4-79OfLmg_JObA8Re-36" target="yNz4-79OfLmg_JObA8Re-26">
          <mxGeometry relative="1" as="geometry">
            <Array as="points">
              <mxPoint x="640" y="390" />
              <mxPoint x="640" y="270" />
            </Array>
          </mxGeometry>
        </mxCell>
        <mxCell id="yNz4-79OfLmg_JObA8Re-36" value="&lt;font face=&quot;consolas&quot;&gt;range_error&lt;br&gt;&lt;/font&gt;" style="rounded=0;whiteSpace=wrap;html=1;fillColor=#fad9d5;strokeColor=#ae4132;" vertex="1" parent="1">
          <mxGeometry x="670" y="370" width="160" height="40" as="geometry" />
        </mxCell>
        <mxCell id="yNz4-79OfLmg_JObA8Re-44" style="edgeStyle=orthogonalEdgeStyle;rounded=0;orthogonalLoop=1;jettySize=auto;html=1;" edge="1" parent="1" source="yNz4-79OfLmg_JObA8Re-37" target="yNz4-79OfLmg_JObA8Re-26">
          <mxGeometry relative="1" as="geometry">
            <Array as="points">
              <mxPoint x="640" y="389.9999999999999" />
              <mxPoint x="640" y="270" />
            </Array>
          </mxGeometry>
        </mxCell>
        <mxCell id="yNz4-79OfLmg_JObA8Re-37" value="&lt;font face=&quot;consolas&quot;&gt;underflow_error&lt;br&gt;&lt;/font&gt;" style="rounded=0;whiteSpace=wrap;html=1;fillColor=#fad9d5;strokeColor=#ae4132;" vertex="1" parent="1">
          <mxGeometry x="450" y="370" width="160" height="40" as="geometry" />
        </mxCell>
        <mxCell id="yNz4-79OfLmg_JObA8Re-41" style="edgeStyle=orthogonalEdgeStyle;rounded=0;orthogonalLoop=1;jettySize=auto;html=1;" edge="1" parent="1" source="yNz4-79OfLmg_JObA8Re-39" target="yNz4-79OfLmg_JObA8Re-26">
          <mxGeometry relative="1" as="geometry" />
        </mxCell>
        <mxCell id="yNz4-79OfLmg_JObA8Re-39" value="&lt;font face=&quot;consolas&quot;&gt;tx_exception&lt;br&gt;&lt;/font&gt;" style="rounded=0;whiteSpace=wrap;html=1;fillColor=#fad9d5;strokeColor=#ae4132;" vertex="1" parent="1">
          <mxGeometry x="450" y="310" width="160" height="40" as="geometry" />
        </mxCell>
        <mxCell id="yNz4-79OfLmg_JObA8Re-50" style="edgeStyle=orthogonalEdgeStyle;rounded=0;orthogonalLoop=1;jettySize=auto;html=1;" edge="1" parent="1" source="yNz4-79OfLmg_JObA8Re-45" target="yNz4-79OfLmg_JObA8Re-24">
          <mxGeometry relative="1" as="geometry" />
        </mxCell>
        <mxCell id="yNz4-79OfLmg_JObA8Re-45" value="&lt;font face=&quot;consolas&quot;&gt;domain_error&lt;br&gt;&lt;/font&gt;" style="rounded=0;whiteSpace=wrap;html=1;fillColor=#fad9d5;strokeColor=#ae4132;" vertex="1" parent="1">
          <mxGeometry x="450" y="70" width="160" height="40" as="geometry" />
        </mxCell>
        <mxCell id="yNz4-79OfLmg_JObA8Re-51" style="edgeStyle=orthogonalEdgeStyle;rounded=0;orthogonalLoop=1;jettySize=auto;html=1;" edge="1" parent="1" source="yNz4-79OfLmg_JObA8Re-46" target="yNz4-79OfLmg_JObA8Re-24">
          <mxGeometry relative="1" as="geometry">
            <Array as="points">
              <mxPoint x="640" y="30" />
              <mxPoint x="640" y="150" />
            </Array>
          </mxGeometry>
        </mxCell>
        <mxCell id="yNz4-79OfLmg_JObA8Re-46" value="&lt;font face=&quot;consolas&quot;&gt;invalid_argument&lt;br&gt;&lt;/font&gt;" style="rounded=0;whiteSpace=wrap;html=1;fillColor=#fad9d5;strokeColor=#ae4132;" vertex="1" parent="1">
          <mxGeometry x="450" y="10" width="160" height="40" as="geometry" />
        </mxCell>
        <mxCell id="yNz4-79OfLmg_JObA8Re-52" style="edgeStyle=orthogonalEdgeStyle;rounded=0;orthogonalLoop=1;jettySize=auto;html=1;" edge="1" parent="1" source="yNz4-79OfLmg_JObA8Re-47" target="yNz4-79OfLmg_JObA8Re-24">
          <mxGeometry relative="1" as="geometry">
            <Array as="points">
              <mxPoint x="640" y="30" />
              <mxPoint x="640" y="150" />
            </Array>
          </mxGeometry>
        </mxCell>
        <mxCell id="yNz4-79OfLmg_JObA8Re-47" value="&lt;font face=&quot;consolas&quot;&gt;length_error&lt;br&gt;&lt;/font&gt;" style="rounded=0;whiteSpace=wrap;html=1;fillColor=#fad9d5;strokeColor=#ae4132;" vertex="1" parent="1">
          <mxGeometry x="670" y="10" width="160" height="40" as="geometry" />
        </mxCell>
        <mxCell id="yNz4-79OfLmg_JObA8Re-53" style="edgeStyle=orthogonalEdgeStyle;rounded=0;orthogonalLoop=1;jettySize=auto;html=1;" edge="1" parent="1" source="yNz4-79OfLmg_JObA8Re-48" target="yNz4-79OfLmg_JObA8Re-24">
          <mxGeometry relative="1" as="geometry">
            <Array as="points">
              <mxPoint x="640" y="90" />
              <mxPoint x="640" y="150" />
            </Array>
          </mxGeometry>
        </mxCell>
        <mxCell id="yNz4-79OfLmg_JObA8Re-48" value="&lt;font face=&quot;consolas&quot;&gt;out_of_range&lt;br&gt;&lt;/font&gt;" style="rounded=0;whiteSpace=wrap;html=1;fillColor=#fad9d5;strokeColor=#ae4132;" vertex="1" parent="1">
          <mxGeometry x="670" y="70" width="160" height="40" as="geometry" />
        </mxCell>
        <mxCell id="yNz4-79OfLmg_JObA8Re-55" style="edgeStyle=orthogonalEdgeStyle;rounded=0;orthogonalLoop=1;jettySize=auto;html=1;" edge="1" parent="1" source="yNz4-79OfLmg_JObA8Re-49" target="yNz4-79OfLmg_JObA8Re-24">
          <mxGeometry relative="1" as="geometry" />
        </mxCell>
        <mxCell id="yNz4-79OfLmg_JObA8Re-49" value="&lt;font face=&quot;consolas&quot;&gt;future_error&lt;br&gt;&lt;/font&gt;" style="rounded=0;whiteSpace=wrap;html=1;fillColor=#fad9d5;strokeColor=#ae4132;" vertex="1" parent="1">
          <mxGeometry x="670" y="130" width="160" height="40" as="geometry" />
        </mxCell>
      </root>
    </mxGraphModel>
  </diagram>
</mxfile>
